<svg id="Layer_1" data-name="Layer 1" xmlns="http://www.w3.org/2000/svg" viewBox="0 0 797.54 189.64"><defs><style>.cls-1{fill:#034ea2;}.cls-2{fill:#fff200;}.cls-3{fill:#58595b;}</style></defs><rect class="cls-1" y="0.01" width="283.6" height="189.07"/><polyline class="cls-2" points="135.76 41.2 141.74 36.84 147.73 41.2 145.45 34.14 151.53 29.77 144.03 29.77 141.74 22.63 139.45 29.78 131.96 29.77 138.03 34.14 135.76 41.2"/><polyline class="cls-2" points="104.79 49.52 110.77 45.16 116.75 49.52 114.48 42.46 120.56 38.09 113.06 38.09 110.77 30.94 108.48 38.1 100.99 38.09 107.06 42.46 104.79 49.52"/><polyline class="cls-2" points="88.11 53.65 85.82 60.81 78.33 60.81 84.41 65.17 82.13 72.24 88.11 67.87 94.1 72.24 91.82 65.17 97.89 60.81 90.41 60.81 88.11 53.65"/><polyline class="cls-2" points="79.8 98.8 85.78 103.17 83.51 96.1 89.58 91.74 82.09 91.74 79.8 84.58 77.51 91.75 70.02 91.74 76.09 96.1 73.82 103.17 79.8 98.8"/><polyline class="cls-2" points="90.41 122.76 88.11 115.6 85.82 122.77 78.33 122.76 84.41 127.13 82.13 134.19 88.11 129.81 94.1 134.19 91.82 127.13 97.89 122.76 90.41 122.76"/><polyline class="cls-2" points="113.11 145.46 110.82 138.31 108.53 145.47 101.03 145.46 107.11 149.83 104.84 156.89 110.82 152.53 116.8 156.89 114.53 149.83 120.6 145.46 113.11 145.46"/><polyline class="cls-2" points="144.04 153.69 141.75 146.53 139.46 153.7 131.97 153.69 138.04 158.06 135.77 165.12 141.75 160.75 147.73 165.12 145.45 158.06 151.53 153.69 144.04 153.69"/><polyline class="cls-2" points="174.97 145.46 172.68 138.31 170.38 145.47 162.9 145.46 168.97 149.83 166.7 156.89 172.68 152.53 178.66 156.89 176.38 149.83 182.46 145.46 174.97 145.46"/><polyline class="cls-2" points="197.68 122.76 195.38 115.6 193.09 122.77 185.6 122.76 191.68 127.13 189.4 134.19 195.38 129.81 201.37 134.19 199.09 127.13 205.16 122.76 197.68 122.76"/><polyline class="cls-2" points="213.39 91.65 205.9 91.65 203.6 84.49 201.31 91.66 193.82 91.65 199.9 96.02 197.63 103.08 203.6 98.7 209.59 103.08 207.31 96.02 213.39 91.65"/><polyline class="cls-2" points="189.4 72.14 195.38 67.78 201.37 72.14 199.09 65.08 205.16 60.72 197.68 60.72 195.38 53.56 193.09 60.73 185.6 60.72 191.68 65.08 189.4 72.14"/><polyline class="cls-2" points="172.77 30.95 170.48 38.11 162.99 38.09 169.06 42.47 166.78 49.53 172.77 45.16 178.75 49.53 176.48 42.47 182.56 38.09 175.06 38.09 172.77 30.95"/><path class="cls-1" d="M318.71,42.23V0h29V7.14H327.24v10h17.63v7.15H327.24V42.23Z"/><path class="cls-1" d="M354.63,7.49V0h8.1V7.49Zm0,34.74V11.64h8.1V42.23Z"/><path class="cls-1" d="M398.86,42.23h-8.1V26.62a23.94,23.94,0,0,0-.52-6.41A4.45,4.45,0,0,0,388.56,18a4.82,4.82,0,0,0-2.81-.81A6.59,6.59,0,0,0,382,18.29a5.87,5.87,0,0,0-2.29,3.06,26.6,26.6,0,0,0-.61,7V42.23H371V11.64h7.52v4.49a12.56,12.56,0,0,1,15-4.22,8.28,8.28,0,0,1,3.36,2.47,9,9,0,0,1,1.58,3.39,25.18,25.18,0,0,1,.45,5.45Z"/><path class="cls-1" d="M413.12,21l-7.35-1.32A11.48,11.48,0,0,1,410,13.08q3-2.13,9-2.13,5.42,0,8.07,1.28a8,8,0,0,1,3.73,3.25q1.08,2,1.08,7.25l-.09,9.45a32.74,32.74,0,0,0,.39,6,17.38,17.38,0,0,0,1.46,4.1h-8c-.21-.53-.47-1.33-.78-2.39-.13-.48-.23-.79-.29-1a14.65,14.65,0,0,1-4.43,3,12.79,12.79,0,0,1-5,1,10.39,10.39,0,0,1-7.44-2.56,8.5,8.5,0,0,1-2.72-6.48,8.78,8.78,0,0,1,1.23-4.63,8.15,8.15,0,0,1,3.48-3.11,26.67,26.67,0,0,1,6.43-1.88,44.35,44.35,0,0,0,7.87-2v-.81a4.24,4.24,0,0,0-1.15-3.33q-1.16-1-4.35-1a5.75,5.75,0,0,0-3.37.85A5.9,5.9,0,0,0,413.12,21ZM424,27.54A49.37,49.37,0,0,1,419,28.78a14.86,14.86,0,0,0-4.4,1.41A3.37,3.37,0,0,0,413,33,3.94,3.94,0,0,0,414.3,36a4.4,4.4,0,0,0,3.22,1.24,7,7,0,0,0,4.18-1.44,5.07,5.07,0,0,0,1.93-2.68,16,16,0,0,0,.32-4Z"/><path class="cls-1" d="M467.71,42.23h-8.1V26.62a24.54,24.54,0,0,0-.51-6.41A4.52,4.52,0,0,0,457.41,18a4.8,4.8,0,0,0-2.81-.81,6.53,6.53,0,0,0-3.77,1.15,5.77,5.77,0,0,0-2.29,3.06,26,26,0,0,0-.62,7V42.23h-8.1V11.64h7.52v4.49a12.56,12.56,0,0,1,15-4.22,8.28,8.28,0,0,1,3.36,2.47,8.88,8.88,0,0,1,1.58,3.39,25.18,25.18,0,0,1,.45,5.45Z"/><path class="cls-1" d="M502.6,20.68l-8,1.45a5.82,5.82,0,0,0-1.83-3.61,5.57,5.57,0,0,0-3.7-1.21,6.06,6.06,0,0,0-4.83,2.09c-1.2,1.4-1.8,3.72-1.8,7q0,5.45,1.83,7.69a6,6,0,0,0,4.91,2.25A5.44,5.44,0,0,0,493,35a7.83,7.83,0,0,0,2.08-4.51L503,31.86a14.14,14.14,0,0,1-4.75,8.27q-3.53,2.79-9.42,2.79-6.72,0-10.71-4.23t-4-11.73q0-7.58,4-11.79T489,11q5.59,0,8.89,2.4A13.35,13.35,0,0,1,502.6,20.68Z"/><path class="cls-1" d="M508.73,7.49V0h8.1V7.49Zm0,34.74V11.64h8.1V42.23Z"/><path class="cls-1" d="M531.18,21l-7.35-1.32a11.43,11.43,0,0,1,4.26-6.57q3-2.13,9-2.13,5.42,0,8.07,1.28a8.07,8.07,0,0,1,3.73,3.25q1.08,2,1.08,7.25l-.09,9.45a32.74,32.74,0,0,0,.39,6,17,17,0,0,0,1.46,4.1h-8c-.21-.53-.47-1.33-.78-2.39-.14-.48-.23-.79-.29-1a14.65,14.65,0,0,1-4.43,3,12.79,12.79,0,0,1-5.05,1,10.39,10.39,0,0,1-7.44-2.56A8.51,8.51,0,0,1,523,33.88a8.79,8.79,0,0,1,1.24-4.63,8.13,8.13,0,0,1,3.47-3.11,26.91,26.91,0,0,1,6.44-1.88,44.35,44.35,0,0,0,7.87-2v-.81a4.24,4.24,0,0,0-1.15-3.33c-.77-.66-2.22-1-4.36-1a5.77,5.77,0,0,0-3.37.85A5.9,5.9,0,0,0,531.18,21ZM542,27.54a49.37,49.37,0,0,1-4.93,1.24,15,15,0,0,0-4.41,1.41A3.39,3.39,0,0,0,531.09,33,3.94,3.94,0,0,0,532.36,36a4.4,4.4,0,0,0,3.22,1.24,7,7,0,0,0,4.18-1.44,5.07,5.07,0,0,0,1.93-2.68,16,16,0,0,0,.32-4Z"/><path class="cls-1" d="M586,42.23h-7.52V37.74a12.08,12.08,0,0,1-4.42,3.9,11.3,11.3,0,0,1-5.15,1.28,11.66,11.66,0,0,1-9-4.24q-3.75-4.26-3.76-11.86c0-5.18,1.22-9.13,3.66-11.82A11.92,11.92,0,0,1,569,11a11.44,11.44,0,0,1,8.87,4.26V0H586Zm-21.61-16q0,4.9,1.36,7.09a6.1,6.1,0,0,0,5.47,3.17A5.94,5.94,0,0,0,576,34.15q2-2.37,2-7.1,0-5.27-1.9-7.59a6.24,6.24,0,0,0-9.69,0Q564.39,21.73,564.39,26.27Z"/><path class="cls-1" d="M592.1,26.5a16.59,16.59,0,0,1,2-7.8,13.61,13.61,0,0,1,5.63-5.76,16.69,16.69,0,0,1,8.14-2,15.26,15.26,0,0,1,11.38,4.51,15.55,15.55,0,0,1,4.44,11.39,15.76,15.76,0,0,1-4.48,11.51,15.16,15.16,0,0,1-11.28,4.56,17.72,17.72,0,0,1-8-1.9,13,13,0,0,1-5.81-5.57A18.64,18.64,0,0,1,592.1,26.5Zm8.3.44q0,4.54,2.16,7a7.07,7.07,0,0,0,10.65,0q2.14-2.43,2.14-7c0-3-.71-5.3-2.14-6.92a7.07,7.07,0,0,0-10.65,0C601.12,21.58,600.4,23.9,600.4,26.94Z"/><path class="cls-1" d="M646.18,11.64h7.55v4.49a11.33,11.33,0,0,1,4-3.74A11,11,0,0,1,663.26,11a11.69,11.69,0,0,1,9,4.17Q676,19.31,676,26.76q0,7.66-3.74,11.92a11.67,11.67,0,0,1-9.08,4.24,10.31,10.31,0,0,1-4.59-1,15.79,15.79,0,0,1-4.34-3.46V53.87h-8.09Zm8,14.78q0,5.16,2,7.62a6.28,6.28,0,0,0,5,2.46,5.84,5.84,0,0,0,4.69-2.26q1.88-2.27,1.88-7.42,0-4.82-1.94-7.14a6,6,0,0,0-4.78-2.34,6.21,6.21,0,0,0-4.92,2.29Q654.19,21.93,654.19,26.42Z"/><path class="cls-1" d="M680.58,26.5a16.58,16.58,0,0,1,2-7.8,13.63,13.63,0,0,1,5.64-5.76,16.62,16.62,0,0,1,8.13-2,15.25,15.25,0,0,1,11.38,4.51,15.55,15.55,0,0,1,4.44,11.39,15.76,15.76,0,0,1-4.48,11.51,15.16,15.16,0,0,1-11.28,4.56,17.72,17.72,0,0,1-8-1.9,13,13,0,0,1-5.81-5.57A18.64,18.64,0,0,1,680.58,26.5Zm8.29.44q0,4.54,2.16,7a7.07,7.07,0,0,0,10.65,0q2.15-2.43,2.15-7c0-3-.72-5.3-2.15-6.92A7.07,7.07,0,0,0,691,20C689.59,21.58,688.87,23.9,688.87,26.94Z"/><path class="cls-1" d="M726.24,42.23h-8.1V11.64h7.52V16a13.11,13.11,0,0,1,3.47-4.06,6.35,6.35,0,0,1,3.5-1A10.33,10.33,0,0,1,738,12.47l-2.5,7.06a7.14,7.14,0,0,0-3.81-1.32,4.52,4.52,0,0,0-2.88.93,6.49,6.49,0,0,0-1.85,3.39c-.46,1.63-.68,5-.68,10.25Z"/><path class="cls-1" d="M318.6,113V70.8h8.09V113Z"/><path class="cls-1" d="M341,91.77l-7.35-1.32A11.45,11.45,0,0,1,338,83.88c2-1.42,5-2.13,9-2.13,3.61,0,6.3.42,8.07,1.28a8,8,0,0,1,3.73,3.25q1.08,2,1.08,7.25l-.08,9.45a33.91,33.91,0,0,0,.38,6,17.38,17.38,0,0,0,1.46,4.1h-8c-.21-.53-.47-1.33-.78-2.39-.13-.48-.23-.8-.29-1a14.65,14.65,0,0,1-4.43,3,12.77,12.77,0,0,1-5,1,10.42,10.42,0,0,1-7.45-2.56,8.5,8.5,0,0,1-2.72-6.48,8.7,8.7,0,0,1,1.24-4.63,8.07,8.07,0,0,1,3.47-3.11A26.77,26.77,0,0,1,344,95.06a44.43,44.43,0,0,0,7.86-2v-.81a4.21,4.21,0,0,0-1.15-3.33q-1.16-1-4.35-1a5.75,5.75,0,0,0-3.37.85A5.9,5.9,0,0,0,341,91.77Zm10.83,6.57a49.37,49.37,0,0,1-4.93,1.24,14.86,14.86,0,0,0-4.4,1.41,3.37,3.37,0,0,0-1.59,2.85,3.94,3.94,0,0,0,1.27,2.94,4.4,4.4,0,0,0,3.23,1.24,7,7,0,0,0,4.17-1.44,5,5,0,0,0,1.93-2.68,16,16,0,0,0,.32-4Z"/><path class="cls-1" d="M384.19,70.8h8.53V93.67a47.45,47.45,0,0,0,.32,7.06,6.76,6.76,0,0,0,2.61,4.16,9.05,9.05,0,0,0,5.63,1.57,8.58,8.58,0,0,0,5.47-1.48,5.86,5.86,0,0,0,2.22-3.64,47.65,47.65,0,0,0,.37-7.18V70.8h8.53V93a57.22,57.22,0,0,1-.69,10.75,11.88,11.88,0,0,1-2.55,5.3,12.88,12.88,0,0,1-5,3.44,21.48,21.48,0,0,1-8.12,1.28q-6.06,0-9.18-1.39a13.33,13.33,0,0,1-4.94-3.63A11.57,11.57,0,0,1,385,104a50.91,50.91,0,0,1-.84-10.71Z"/><path class="cls-1" d="M454.63,113h-8.09V97.42A24.39,24.39,0,0,0,446,91a4.52,4.52,0,0,0-1.69-2.26,4.8,4.8,0,0,0-2.81-.81,6.53,6.53,0,0,0-3.77,1.15,5.77,5.77,0,0,0-2.29,3.06,26,26,0,0,0-.62,7V113h-8.1V82.44h7.52v4.49a12.56,12.56,0,0,1,15-4.22,8.28,8.28,0,0,1,3.36,2.47,8.73,8.73,0,0,1,1.58,3.39,25.18,25.18,0,0,1,.45,5.45Z"/><path class="cls-1" d="M462.84,78.29V70.8h8.1v7.49Zm0,34.74V82.44h8.1V113Z"/><path class="cls-1" d="M477.36,97.3a16.48,16.48,0,0,1,2-7.8A13.63,13.63,0,0,1,485,83.73a16.76,16.76,0,0,1,8.14-2,15.26,15.26,0,0,1,11.38,4.51,15.54,15.54,0,0,1,4.43,11.39,15.79,15.79,0,0,1-4.47,11.51,15.16,15.16,0,0,1-11.28,4.56,17.76,17.76,0,0,1-8-1.9,13,13,0,0,1-5.8-5.57A18.53,18.53,0,0,1,477.36,97.3Zm8.3.44q0,4.55,2.16,7a7.06,7.06,0,0,0,10.64,0q2.15-2.43,2.15-7c0-3-.72-5.3-2.15-6.92a7.06,7.06,0,0,0-10.64,0C486.38,92.38,485.66,94.7,485.66,97.74Zm3.4-19,4-8.61h9.08l-7.93,8.61Z"/><path class="cls-1" d="M543.1,113H535V97.42a24.39,24.39,0,0,0-.52-6.41,4.52,4.52,0,0,0-1.69-2.26,4.8,4.8,0,0,0-2.81-.81,6.53,6.53,0,0,0-3.77,1.15,5.82,5.82,0,0,0-2.29,3.06,26.48,26.48,0,0,0-.62,7V113h-8.1V82.44h7.52v4.49a12.56,12.56,0,0,1,15-4.22,8.28,8.28,0,0,1,3.36,2.47,8.73,8.73,0,0,1,1.58,3.39A25.18,25.18,0,0,1,543.1,94Z"/><path class="cls-1" d="M567.76,113V70.8h31.32v7.14H576.29v9.37h21.2v7.11h-21.2v11.5h23.59V113Z"/><path class="cls-1" d="M627.19,113v-4.58a11.72,11.72,0,0,1-4.39,3.86,12.31,12.31,0,0,1-5.75,1.41,11.27,11.27,0,0,1-5.53-1.35,8,8,0,0,1-3.54-3.8,17,17,0,0,1-1.1-6.77V82.44H615V96.5q0,6.45.45,7.91a4.3,4.3,0,0,0,1.62,2.3,5,5,0,0,0,3,.85,6.39,6.39,0,0,0,3.72-1.14A5.8,5.8,0,0,0,626,103.6q.62-1.69.61-8.26V82.44h8.09V113Z"/><path class="cls-1" d="M650.85,113h-8.1V82.44h7.52v4.35a13,13,0,0,1,3.47-4.06,6.32,6.32,0,0,1,3.5-1,10.35,10.35,0,0,1,5.33,1.52l-2.51,7.06a7.11,7.11,0,0,0-3.8-1.32,4.52,4.52,0,0,0-2.88.93,6.43,6.43,0,0,0-1.86,3.39q-.67,2.44-.67,10.25Z"/><path class="cls-1" d="M664.18,97.3a16.59,16.59,0,0,1,2-7.8,13.69,13.69,0,0,1,5.63-5.77,16.79,16.79,0,0,1,8.14-2,15.26,15.26,0,0,1,11.38,4.51,15.55,15.55,0,0,1,4.44,11.39,15.76,15.76,0,0,1-4.48,11.51A15.16,15.16,0,0,1,680,113.72a17.72,17.72,0,0,1-8-1.9,13,13,0,0,1-5.81-5.57A18.64,18.64,0,0,1,664.18,97.3Zm8.3.44q0,4.55,2.16,7a7.07,7.07,0,0,0,10.65,0q2.15-2.43,2.14-7c0-3-.71-5.3-2.14-6.92a7.07,7.07,0,0,0-10.65,0C673.2,92.38,672.48,94.7,672.48,97.74Z"/><path class="cls-1" d="M701.87,82.44h7.54v4.49a11.36,11.36,0,0,1,4-3.74A11,11,0,0,1,719,81.75a11.69,11.69,0,0,1,9,4.17q3.71,4.18,3.71,11.64,0,7.66-3.74,11.92a11.69,11.69,0,0,1-9.08,4.24,10.31,10.31,0,0,1-4.59-1,15.65,15.65,0,0,1-4.34-3.46v15.41h-8.09Zm8,14.78c0,3.44.69,6,2,7.62a6.26,6.26,0,0,0,5,2.46,5.84,5.84,0,0,0,4.7-2.26q1.88-2.27,1.87-7.42,0-4.82-1.93-7.14a6,6,0,0,0-4.78-2.34,6.24,6.24,0,0,0-4.93,2.29C710.53,92,709.87,94.22,709.87,97.22Z"/><path class="cls-1" d="M755.85,103.3l8.07,1.35a13.31,13.31,0,0,1-4.91,6.76,14.49,14.49,0,0,1-8.4,2.31q-8,0-11.81-5.21a17.48,17.48,0,0,1-3-10.54q0-7.6,4-11.92a13.09,13.09,0,0,1,10-4.3q6.83,0,10.78,4.51t3.77,13.81H744.07a8.18,8.18,0,0,0,2,5.6,6.11,6.11,0,0,0,4.67,2,4.94,4.94,0,0,0,3.19-1A6.37,6.37,0,0,0,755.85,103.3Zm.46-8.19a7.76,7.76,0,0,0-1.81-5.34,5.58,5.58,0,0,0-4.21-1.83,5.64,5.64,0,0,0-4.38,1.93,7.49,7.49,0,0,0-1.7,5.24Z"/><path class="cls-1" d="M777,91.77l-7.35-1.32a11.45,11.45,0,0,1,4.27-6.57c2-1.42,5-2.13,9-2.13,3.61,0,6.3.42,8.07,1.28a8,8,0,0,1,3.73,3.25q1.08,2,1.08,7.25L795.7,103a33.91,33.91,0,0,0,.38,6,17.38,17.38,0,0,0,1.46,4.1h-8c-.21-.53-.47-1.33-.78-2.39-.13-.48-.23-.8-.29-1a14.65,14.65,0,0,1-4.43,3,12.77,12.77,0,0,1-5,1,10.42,10.42,0,0,1-7.45-2.56,8.5,8.5,0,0,1-2.72-6.48,8.7,8.7,0,0,1,1.24-4.63,8.07,8.07,0,0,1,3.47-3.11A26.77,26.77,0,0,1,780,95.06a44.43,44.43,0,0,0,7.86-2v-.81a4.21,4.21,0,0,0-1.15-3.33q-1.15-1-4.35-1a5.75,5.75,0,0,0-3.37.85A5.9,5.9,0,0,0,777,91.77Zm10.83,6.57a49.37,49.37,0,0,1-4.93,1.24,14.86,14.86,0,0,0-4.4,1.41,3.37,3.37,0,0,0-1.59,2.85,3.94,3.94,0,0,0,1.27,2.94,4.4,4.4,0,0,0,3.23,1.24,7,7,0,0,0,4.17-1.44,5,5,0,0,0,1.93-2.68,16,16,0,0,0,.32-4Z"/><path class="cls-3" d="M318.67,189v-36.5h4.95l19.18,28.66V152.51h4.63V189h-5L323.3,160.33V189Z"/><path class="cls-3" d="M373.08,180.5l4.63.57a11.3,11.3,0,0,1-4.06,6.3,12.24,12.24,0,0,1-7.57,2.24,12.09,12.09,0,0,1-9.2-3.57q-3.4-3.57-3.4-10c0-4.44,1.14-7.9,3.44-10.35a11.62,11.62,0,0,1,8.91-3.69,11.3,11.3,0,0,1,8.67,3.61q3.36,3.61,3.36,10.16c0,.27,0,.66,0,1.2H358.11a10.16,10.16,0,0,0,2.47,6.67,7.34,7.34,0,0,0,5.52,2.32,6.87,6.87,0,0,0,4.21-1.3A8.6,8.6,0,0,0,373.08,180.5Zm-14.72-7.25h14.77a9,9,0,0,0-1.7-5,6.85,6.85,0,0,0-5.55-2.59,7.1,7.1,0,0,0-5.19,2.06A8.2,8.2,0,0,0,358.36,173.25Z"/><path class="cls-3" d="M380.35,189,390,175.27l-8.94-12.7h5.6l4.06,6.2c.77,1.18,1.38,2.16,1.85,3,.73-1.09,1.4-2.07,2-2.91l4.46-6.25h5.35L395.26,175l9.84,14h-5.5l-5.43-8.21-1.45-2.22L385.78,189Z"/><path class="cls-3" d="M418.62,185l.65,4a16.32,16.32,0,0,1-3.39.4,7.73,7.73,0,0,1-3.78-.77,4.25,4.25,0,0,1-1.89-2,15.89,15.89,0,0,1-.55-5.29V166.05h-3.29v-3.48h3.29V156l4.46-2.69v9.24h4.5v3.48h-4.5v15.47a7.74,7.74,0,0,0,.23,2.46,1.86,1.86,0,0,0,.77.87,3,3,0,0,0,1.54.33A14.1,14.1,0,0,0,418.62,185Z"/><path class="cls-3" d="M440.66,174.69v-4.28l15.47,0v13.54a27.15,27.15,0,0,1-7.35,4.27,21.65,21.65,0,0,1-7.77,1.44,20.66,20.66,0,0,1-9.77-2.31,15.16,15.16,0,0,1-6.64-6.66,21,21,0,0,1-2.24-9.74,22.51,22.51,0,0,1,2.23-9.94,14.76,14.76,0,0,1,6.41-6.86,20,20,0,0,1,9.64-2.25,19,19,0,0,1,7.16,1.29,11.78,11.78,0,0,1,5,3.57,15.73,15.73,0,0,1,2.77,6l-4.36,1.19a13.56,13.56,0,0,0-2-4.38,8.4,8.4,0,0,0-3.49-2.55,12.78,12.78,0,0,0-5-1,14.67,14.67,0,0,0-5.73,1,10.51,10.51,0,0,0-3.89,2.65,12.61,12.61,0,0,0-2.31,3.61,19.12,19.12,0,0,0-1.39,7.35A17.81,17.81,0,0,0,429,178.8a10.7,10.7,0,0,0,4.89,4.88,15.07,15.07,0,0,0,6.83,1.6,16.09,16.09,0,0,0,6.12-1.21,15.29,15.29,0,0,0,4.53-2.58v-6.8Z"/><path class="cls-3" d="M480.78,180.5l4.63.57a11.25,11.25,0,0,1-4.06,6.3A13.76,13.76,0,0,1,464.58,186q-3.4-3.57-3.4-10c0-4.44,1.15-7.9,3.44-10.35a11.62,11.62,0,0,1,8.91-3.69,11.3,11.3,0,0,1,8.67,3.61q3.36,3.61,3.36,10.16c0,.27,0,.66,0,1.2H465.81a10.16,10.16,0,0,0,2.47,6.67,7.36,7.36,0,0,0,5.53,2.32,6.86,6.86,0,0,0,4.2-1.3A8.53,8.53,0,0,0,480.78,180.5Zm-14.72-7.25h14.77a9,9,0,0,0-1.69-5,6.87,6.87,0,0,0-5.56-2.59,7.1,7.1,0,0,0-5.19,2.06A8.2,8.2,0,0,0,466.06,173.25Z"/><path class="cls-3" d="M491,189V162.57h4v3.76a9.51,9.51,0,0,1,8.42-4.36,11.14,11.14,0,0,1,4.4.86,7,7,0,0,1,3,2.25,8.67,8.67,0,0,1,1.39,3.31,25.29,25.29,0,0,1,.25,4.36V189h-4.48V172.93a12.34,12.34,0,0,0-.52-4.1,4.35,4.35,0,0,0-1.86-2.17,5.91,5.91,0,0,0-3.13-.81,7.27,7.27,0,0,0-4.94,1.82q-2.09,1.82-2.08,6.9V189Z"/><path class="cls-3" d="M537.51,180.5l4.63.57a11.3,11.3,0,0,1-4.06,6.3,12.24,12.24,0,0,1-7.57,2.24,12.09,12.09,0,0,1-9.2-3.57q-3.4-3.57-3.4-10c0-4.44,1.14-7.9,3.44-10.35a11.62,11.62,0,0,1,8.91-3.69,11.3,11.3,0,0,1,8.67,3.61q3.36,3.61,3.36,10.16c0,.27,0,.66,0,1.2H522.54a10.16,10.16,0,0,0,2.47,6.67,7.34,7.34,0,0,0,5.52,2.32,6.87,6.87,0,0,0,4.21-1.3A8.6,8.6,0,0,0,537.51,180.5Zm-14.72-7.25h14.77a9,9,0,0,0-1.7-5,6.85,6.85,0,0,0-5.55-2.59,7.1,7.1,0,0,0-5.19,2.06A8.16,8.16,0,0,0,522.79,173.25Z"/><path class="cls-3" d="M547.72,189V162.57h4v4a10.85,10.85,0,0,1,2.85-3.71,5,5,0,0,1,2.88-.9,8.74,8.74,0,0,1,4.6,1.44l-1.54,4.16a6.37,6.37,0,0,0-3.29-1,4.27,4.27,0,0,0-2.64.89,4.74,4.74,0,0,0-1.66,2.45,17.39,17.39,0,0,0-.75,5.23V189Z"/><path class="cls-3" d="M582,185.75a16.66,16.66,0,0,1-4.8,3,13.83,13.83,0,0,1-4.94.87c-2.9,0-5.14-.71-6.7-2.13a7,7,0,0,1-2.34-5.44,7.25,7.25,0,0,1,.89-3.55,7.18,7.18,0,0,1,2.31-2.57,10.82,10.82,0,0,1,3.23-1.47,30.91,30.91,0,0,1,4-.68,40.67,40.67,0,0,0,8-1.54c0-.61,0-1,0-1.17,0-1.83-.42-3.11-1.27-3.86a7.53,7.53,0,0,0-5.11-1.52,7.88,7.88,0,0,0-4.66,1.11,6.72,6.72,0,0,0-2.23,3.92l-4.39-.6a10.91,10.91,0,0,1,2-4.54,8.61,8.61,0,0,1,4-2.67,17.75,17.75,0,0,1,6-.93,16,16,0,0,1,5.51.8,7.32,7.32,0,0,1,3.11,2,7,7,0,0,1,1.39,3,25,25,0,0,1,.23,4.14v6a64.25,64.25,0,0,0,.28,7.91,9.82,9.82,0,0,0,1.14,3.17H582.9A9.51,9.51,0,0,1,582,185.75Zm-.38-10a32.68,32.68,0,0,1-7.32,1.69,17.37,17.37,0,0,0-3.91.9,3.94,3.94,0,0,0-1.77,1.46,3.87,3.87,0,0,0-.62,2.13,3.78,3.78,0,0,0,1.36,3,5.82,5.82,0,0,0,4,1.2A9.32,9.32,0,0,0,578,185a7,7,0,0,0,3-3.1,10.91,10.91,0,0,0,.72-4.49Z"/><path class="cls-3" d="M602.9,185l.65,4a16.32,16.32,0,0,1-3.39.4,7.67,7.67,0,0,1-3.78-.77,4.32,4.32,0,0,1-1.9-2,16.26,16.26,0,0,1-.54-5.29V166.05h-3.29v-3.48h3.29V156l4.45-2.69v9.24h4.51v3.48h-4.51v15.47a7.64,7.64,0,0,0,.24,2.46,1.81,1.81,0,0,0,.77.87,3,3,0,0,0,1.53.33A14.1,14.1,0,0,0,602.9,185Z"/><path class="cls-3" d="M607.31,157.66v-5.15h4.48v5.15Zm0,31.35V162.57h4.48V189Z"/><path class="cls-3" d="M617,175.79q0-7.35,4.08-10.88a12.3,12.3,0,0,1,8.32-2.94,11.87,11.87,0,0,1,8.91,3.57q3.47,3.59,3.46,9.88a17.51,17.51,0,0,1-1.53,8,10.84,10.84,0,0,1-4.46,4.54,13,13,0,0,1-6.38,1.62,11.89,11.89,0,0,1-9-3.56Q617,182.5,617,175.79Zm4.6,0c0,3.39.74,5.92,2.22,7.61a7.38,7.38,0,0,0,11.13,0q2.22-2.55,2.22-7.75c0-3.27-.75-5.75-2.23-7.43a7.38,7.38,0,0,0-11.12,0Q621.55,170.71,621.55,175.79Z"/><path class="cls-3" d="M647,189V162.57h4v3.76a9.5,9.5,0,0,1,8.42-4.36,11.05,11.05,0,0,1,4.39.86,6.84,6.84,0,0,1,3,2.25,8.68,8.68,0,0,1,1.4,3.31,26.37,26.37,0,0,1,.25,4.36V189H664V172.93a12,12,0,0,0-.53-4.1,4.32,4.32,0,0,0-1.85-2.17,5.91,5.91,0,0,0-3.13-.81,7.25,7.25,0,0,0-4.94,1.82q-2.09,1.82-2.08,6.9V189Z"/><path class="cls-3" d="M676,189v-36.5h26.4v4.3H680.84V168H701v4.28h-20.2v12.43h22.42V189Z"/><path class="cls-3" d="M733.89,152.51h4.83V173.6a25,25,0,0,1-1.25,8.74,10.71,10.71,0,0,1-4.49,5.27,16,16,0,0,1-8.53,2,17.49,17.49,0,0,1-8.39-1.77,10.1,10.1,0,0,1-4.66-5.12A24.36,24.36,0,0,1,710,173.6V152.51h4.83v21.06a20.5,20.5,0,0,0,.88,7,6.67,6.67,0,0,0,3,3.48,10.56,10.56,0,0,0,5.27,1.22q5.33,0,7.59-2.42c1.51-1.61,2.27-4.7,2.27-9.29Z"/></svg>