<?xml version="1.0" encoding="UTF-8"?>
<svg width="220px" height="100px" viewBox="0 0 220 100" version="1.1" xmlns="http://www.w3.org/2000/svg" xmlns:xlink="http://www.w3.org/1999/xlink">
    <!-- Generator: Sketch 53.2 (72643) - https://sketchapp.com -->
    <title>logo cdti2</title>
    <desc>Created with Sketch.</desc>
    <g id="logo-cdti2" stroke="none" stroke-width="1" fill="none" fill-rule="evenodd">
        <g id="logo-cdti" transform="translate(-1.000000, 0.000000)" fill="#1A85BF">
            <polygon id="Path" fill-rule="nonzero" points="35.0938393 5.21 35.0938393 22.01 51.2383929 22.01 35.0938393 5.21"></polygon>
            <polygon id="Path" fill-rule="nonzero" points="11.0801786 40.74 51.4861607 40.74 35.2623214 57.64 11.0801786 57.64 11.0801786 40.74"></polygon>
            <polygon id="Path" fill-rule="nonzero" points="35.0046429 58.06 46.9767857 69.96 86.4610714 30.12 86.4610714 55.86 47.73 95.2 35.0046429 82.62 35.0046429 58.06"></polygon>
            <path d="M96.57,20.46 C96.57,20.46 96.7384821,8.22 111.822589,8.22 C126.906696,8.22 127.679732,18.5 127.679732,20.38 L127.679732,35 L117.273482,35 L117.273482,22.68 C117.273482,22.68 115.975179,18.75 112.506429,18.75 C109.740091,18.5535249 107.281746,20.5179705 106.8375,23.28 L106.8375,76.93 C106.8375,76.93 106.916786,81.49 112.159554,81.49 C116.123839,81.49 117.194196,77.36 117.194196,77.36 L117.194196,65.11 L127.679732,65.11 L127.679732,81.11 C127.679732,81.11 127.422054,91.98 112.159554,91.98 C96.8970536,91.98 96.57,81.74 96.57,76.24 L96.57,20.46 L96.57,20.46 Z" id="Path" fill-rule="nonzero"></path>
            <path d="M143.061161,20.38 L143.061161,79.69 L148.809375,79.69 C153.378214,78.76 153.625982,74.96 153.625982,74.96 L153.625982,25.84 C152.833125,20.42 148.214732,20.38 148.214732,20.38 L143.061161,20.38 Z M132.872946,9.93 L150.712232,9.93 C150.712232,9.93 164.032232,8.82 164.032232,24.93 L164.032232,78.15 C164.032232,78.15 161.742857,90.39 150.801429,90.39 L132.872946,90.39 L132.872946,9.93 Z" id="Shape"></path>
            <polygon id="Path" fill-rule="nonzero" points="166.559464 9.84 197.837679 9.84 197.837679 20.29 187.401696 20.29 187.401696 90.27 176.876518 90.27 176.876518 20.38 166.559464 20.38 166.559464 9.84"></polygon>
            <polygon id="Path" fill-rule="nonzero" points="201.474911 9.76 211.405446 9.76 211.405446 90.27 201.474911 90.27 201.474911 9.76"></polygon>
        </g>
    </g>
</svg>