<svg id="Capa_1" data-name="Capa 1" xmlns="http://www.w3.org/2000/svg" viewBox="0 0 520 235.94"><defs><style>.cls-1{fill:#ce0e2d;}.cls-2{fill:#ffcd00;}.cls-3{fill:#575756;}</style></defs><polygon class="cls-1" points="268.93 0 268.93 25.04 246.07 25.04 246.07 125.77 218.98 125.77 218.98 25.04 196 25.04 196 0 268.93 0"/><path class="cls-1" d="M295.72,85.68l-3.79,1.21A82.52,82.52,0,0,1,273,90.56l-6.87.17,24.89,34.94h33.43Z"/><polygon class="cls-2" points="213.78 108.83 205.72 108.36 204.44 101.11 200.41 108.06 191.93 107.56 197.81 112.61 193.77 119.8 201.46 115.79 209.05 120.68 206.71 113.37 213.78 108.83"/><polygon class="cls-2" points="190.95 83.91 183.44 83.47 182.23 76.94 178.49 83.19 170.58 82.73 176.07 87.28 171.22 93.69 179.48 90.15 185.44 94.51 184.37 87.98 190.95 83.91"/><polygon class="cls-2" points="188.37 56.82 181.6 56.43 180.49 50.86 177.14 56.17 170.01 55.76 174.97 59.66 170.63 65.1 178.05 62.11 183.44 65.84 182.45 60.28 188.37 56.82"/><polygon class="cls-2" points="201.03 35.85 195.14 35.51 194.15 31.11 191.26 35.29 185.06 34.93 189.39 38.02 185.64 42.3 192.08 39.97 196.78 42.94 195.9 38.55 201.03 35.85"/><path class="cls-2" d="M317.15,26a39.05,39.05,0,0,0-10-13.76,44.94,44.94,0,0,0-15.86-8.91A66.67,66.67,0,0,0,271.56.17c0,8.36.05,16.6,0,25A25.36,25.36,0,0,1,284.88,30q6.31,4.85,6.32,14.21v.36a17.61,17.61,0,0,1-6,13.58q-6,5.49-17,5.49l-19.62,0c0,8.26,0,16.37,0,24.61h18.67a75.21,75.21,0,0,0,20.85-2.79,50.27,50.27,0,0,0,17-8.36,39.88,39.88,0,0,0,11.42-13.85,42.5,42.5,0,0,0,4.15-19.25v-.36A44,44,0,0,0,317.15,26Z"/><path class="cls-3" d="M60,163.89H70.29a12.27,12.27,0,0,1,4,.62,8.69,8.69,0,0,1,3,1.78,8,8,0,0,1,1.9,2.74,9.22,9.22,0,0,1,.66,3.54v.07a8.75,8.75,0,0,1-.79,3.84,7.86,7.86,0,0,1-2.17,2.76,9.44,9.44,0,0,1-3.23,1.67,13.68,13.68,0,0,1-4,.55h-4.2V189H60Zm9.9,12.66a4.56,4.56,0,0,0,3.23-1.09,3.62,3.62,0,0,0,1.14-2.71v-.07a3.44,3.44,0,0,0-1.2-2.84,5.11,5.11,0,0,0-3.28-1H65.55v7.68Z"/><path class="cls-3" d="M83.67,162.81h5.45V189H83.67Z"/><path class="cls-3" d="M99.7,189.36a8.52,8.52,0,0,1-2.56-.38,5.9,5.9,0,0,1-2.1-1.13A5.42,5.42,0,0,1,93.62,186a5.78,5.78,0,0,1-.52-2.53v-.07a6.1,6.1,0,0,1,.57-2.73,5.44,5.44,0,0,1,1.6-1.9,7.14,7.14,0,0,1,2.44-1.13,12.24,12.24,0,0,1,3.14-.37,13.71,13.71,0,0,1,2.56.21,17.32,17.32,0,0,1,2.14.58v-.33a3.3,3.3,0,0,0-1-2.62,4.67,4.67,0,0,0-3.09-.89,12.78,12.78,0,0,0-2.78.27,18.37,18.37,0,0,0-2.53.77l-1.36-4.16a21,21,0,0,1,3.3-1.12,17.73,17.73,0,0,1,4.16-.43,11.83,11.83,0,0,1,3.86.56,6.74,6.74,0,0,1,2.63,1.6,6.31,6.31,0,0,1,1.58,2.63,11.25,11.25,0,0,1,.5,3.5V189h-5.27v-2.08a7.56,7.56,0,0,1-2.4,1.77A7.94,7.94,0,0,1,99.7,189.36Zm1.65-3.77a4.81,4.81,0,0,0,3.1-.93,3,3,0,0,0,1.17-2.44v-1a7.9,7.9,0,0,0-1.6-.52,8.6,8.6,0,0,0-1.88-.2,4.9,4.9,0,0,0-2.76.68,2.25,2.25,0,0,0-1,2v.07A2,2,0,0,0,99.2,185,3.51,3.51,0,0,0,101.35,185.59Z"/><path class="cls-3" d="M115.48,169.77h5.46v2.75a12.49,12.49,0,0,1,1-1.18,7.41,7.41,0,0,1,1.23-1,6.3,6.3,0,0,1,1.51-.69,6.66,6.66,0,0,1,1.87-.25,6.15,6.15,0,0,1,4.82,1.9,7.56,7.56,0,0,1,1.7,5.24V189h-5.45V178.3a4.3,4.3,0,0,0-.86-2.92,3.08,3.08,0,0,0-2.44-1,3.25,3.25,0,0,0-2.49,1,4.15,4.15,0,0,0-.91,2.92V189h-5.46Z"/><path class="cls-3" d="M156.48,189.36a8.54,8.54,0,0,1-3.26-.65,8,8,0,0,1-2.8-1.92,9.64,9.64,0,0,1-2-3.12,11.44,11.44,0,0,1-.73-4.25v-.07a11.44,11.44,0,0,1,.73-4.25A9.67,9.67,0,0,1,150.4,172a7.89,7.89,0,0,1,2.78-1.92,8.63,8.63,0,0,1,3.3-.65,6.91,6.91,0,0,1,3.61.86,9.83,9.83,0,0,1,2.38,2v-9.47h5.45V189h-5.45v-2.77a8.64,8.64,0,0,1-2.42,2.25A6.7,6.7,0,0,1,156.48,189.36Zm1.4-4.63a4.38,4.38,0,0,0,1.81-.38,4.31,4.31,0,0,0,1.47-1.08,5.19,5.19,0,0,0,1-1.68,6.07,6.07,0,0,0,.37-2.17v-.07a6,6,0,0,0-.37-2.17,5.35,5.35,0,0,0-1-1.69,4.28,4.28,0,0,0-1.47-1.07,4.5,4.5,0,0,0-3.62,0,4.45,4.45,0,0,0-1.49,1.07,5.2,5.2,0,0,0-1,1.67,6,6,0,0,0-.38,2.19v.07a6.07,6.07,0,0,0,.38,2.17,5,5,0,0,0,1,1.68,4.48,4.48,0,0,0,1.49,1.08A4.38,4.38,0,0,0,157.88,184.73Z"/><path class="cls-3" d="M181.91,189.43a10.93,10.93,0,0,1-4-.72,9.26,9.26,0,0,1-3.19-2.05,9.37,9.37,0,0,1-2.1-3.13,10.5,10.5,0,0,1-.75-4v-.07a10.72,10.72,0,0,1,.7-3.88,10.14,10.14,0,0,1,2-3.19,9.26,9.26,0,0,1,3-2.15,9.16,9.16,0,0,1,3.86-.79,9.45,9.45,0,0,1,4.16.86,8.56,8.56,0,0,1,2.92,2.32,9.51,9.51,0,0,1,1.72,3.33,13.88,13.88,0,0,1,.56,3.93c0,.21,0,.44,0,.68s0,.49-.05.75H177.29a4.54,4.54,0,0,0,1.63,2.82,4.9,4.9,0,0,0,3.06,1,5.9,5.9,0,0,0,2.44-.47,8.39,8.39,0,0,0,2.23-1.5l3.12,2.76a9.84,9.84,0,0,1-3.3,2.64A10.28,10.28,0,0,1,181.91,189.43Zm3.52-11.55a5.34,5.34,0,0,0-1.29-3,3.57,3.57,0,0,0-2.76-1.13,3.65,3.65,0,0,0-2.78,1.11,5.57,5.57,0,0,0-1.39,3Z"/><path class="cls-3" d="M206.12,163.89H217.6q4.77,0,7.32,2.54a7.75,7.75,0,0,1,2.15,5.74v.07a7.82,7.82,0,0,1-1.49,5,8.64,8.64,0,0,1-3.89,2.82l6.14,9h-6.46L216,181h-4.34v8h-5.53Zm11.12,12.19a4.56,4.56,0,0,0,3.14-1,3.26,3.26,0,0,0,1.1-2.58v-.07a3.22,3.22,0,0,0-1.15-2.69,5.06,5.06,0,0,0-3.19-.9h-5.49v7.21Z"/><path class="cls-3" d="M240.6,189.43a10.89,10.89,0,0,1-4-.72,9.2,9.2,0,0,1-3.2-2.05,9.5,9.5,0,0,1-2.09-3.13,10.31,10.31,0,0,1-.76-4v-.07a10.72,10.72,0,0,1,.7-3.88,10,10,0,0,1,2-3.19,9.11,9.11,0,0,1,6.85-2.94,9.42,9.42,0,0,1,4.16.86,8.56,8.56,0,0,1,2.92,2.32,9.51,9.51,0,0,1,1.72,3.33,13.88,13.88,0,0,1,.56,3.93c0,.21,0,.44,0,.68s0,.49-.05.75H236a4.58,4.58,0,0,0,1.63,2.82,4.93,4.93,0,0,0,3.07,1,5.94,5.94,0,0,0,2.44-.47,8.51,8.51,0,0,0,2.22-1.5l3.12,2.76a9.84,9.84,0,0,1-3.3,2.64A10.27,10.27,0,0,1,240.6,189.43Zm3.51-11.55a5.34,5.34,0,0,0-1.29-3,3.54,3.54,0,0,0-2.76-1.13,3.65,3.65,0,0,0-2.78,1.11,5.49,5.49,0,0,0-1.38,3Z"/><path class="cls-3" d="M262.55,189.43a10.16,10.16,0,0,1-4-.79,9.83,9.83,0,0,1-6-9.15v-.07a10.16,10.16,0,0,1,.75-3.88,10.29,10.29,0,0,1,2.08-3.19,9.81,9.81,0,0,1,3.18-2.15,10.19,10.19,0,0,1,4.07-.79,9.47,9.47,0,0,1,7.68,3.23L267,176.23a9,9,0,0,0-1.92-1.55,4.87,4.87,0,0,0-2.46-.57,4.29,4.29,0,0,0-1.88.41,4.74,4.74,0,0,0-1.47,1.13,5.23,5.23,0,0,0-1,1.67,5.89,5.89,0,0,0-.34,2v.07a6.17,6.17,0,0,0,.34,2.08,5,5,0,0,0,1,1.69,4.72,4.72,0,0,0,3.55,1.54,4.9,4.9,0,0,0,2.38-.56,9.93,9.93,0,0,0,2-1.49l3.19,3.23a12.16,12.16,0,0,1-3.19,2.53A9.62,9.62,0,0,1,262.55,189.43Z"/><path class="cls-3" d="M280.34,189.36a6.16,6.16,0,0,1-4.83-1.91,7.57,7.57,0,0,1-1.7-5.23V169.77h5.45v10.7a4.3,4.3,0,0,0,.86,2.91,3.07,3.07,0,0,0,2.44,1,3.25,3.25,0,0,0,2.5-1,4.11,4.11,0,0,0,.91-2.91v-10.7h5.45V189H286v-2.75a11.24,11.24,0,0,1-1,1.17,6.66,6.66,0,0,1-1.24,1,6.12,6.12,0,0,1-1.51.69A6.28,6.28,0,0,1,280.34,189.36Z"/><path class="cls-3" d="M296.3,169.77h5.45v2.76a8.74,8.74,0,0,1,2.42-2.24,6.65,6.65,0,0,1,3.57-.88,8.59,8.59,0,0,1,3.27.65A8,8,0,0,1,313.8,172a9.38,9.38,0,0,1,2,3.12,11.43,11.43,0,0,1,.74,4.25v.07a11.43,11.43,0,0,1-.74,4.25,9.78,9.78,0,0,1-1.94,3.12,7.89,7.89,0,0,1-2.78,1.92,8.63,8.63,0,0,1-3.3.65,6.76,6.76,0,0,1-3.6-.87,9.45,9.45,0,0,1-2.39-2v8.26H296.3Zm10,15a4.38,4.38,0,0,0,3.3-1.46,5,5,0,0,0,1-1.66,6.06,6.06,0,0,0,.37-2.19v-.07a6,6,0,0,0-.37-2.17,5,5,0,0,0-1-1.69,4.42,4.42,0,0,0-1.48-1.07,4.3,4.3,0,0,0-1.82-.38,4.38,4.38,0,0,0-3.28,1.45,5.33,5.33,0,0,0-1,1.69,6,6,0,0,0-.38,2.17v.07a6.07,6.07,0,0,0,.38,2.17,5.17,5.17,0,0,0,1,1.68,4.31,4.31,0,0,0,1.47,1.08A4.42,4.42,0,0,0,306.34,184.73Z"/><path class="cls-3" d="M329.62,189.43a11,11,0,0,1-4-.72,9.26,9.26,0,0,1-3.19-2.05,9.52,9.52,0,0,1-2.1-3.13,10.5,10.5,0,0,1-.75-4v-.07a10.72,10.72,0,0,1,.7-3.88,10,10,0,0,1,2-3.19,9.26,9.26,0,0,1,3-2.15,9.14,9.14,0,0,1,3.85-.79,9.46,9.46,0,0,1,4.17.86,8.56,8.56,0,0,1,2.92,2.32,9.51,9.51,0,0,1,1.72,3.33,13.88,13.88,0,0,1,.56,3.93c0,.21,0,.44,0,.68s0,.49-.05.75H325a4.54,4.54,0,0,0,1.63,2.82,4.88,4.88,0,0,0,3.06,1,5.9,5.9,0,0,0,2.44-.47,8.39,8.39,0,0,0,2.23-1.5l3.12,2.76a9.84,9.84,0,0,1-3.3,2.64A10.28,10.28,0,0,1,329.62,189.43Zm3.52-11.55a5.34,5.34,0,0,0-1.29-3,3.58,3.58,0,0,0-2.77-1.13,3.68,3.68,0,0,0-2.78,1.11,5.63,5.63,0,0,0-1.38,3Z"/><path class="cls-3" d="M342.5,169.77H348v3.87a8.08,8.08,0,0,1,2.26-3.15,5.52,5.52,0,0,1,3.88-1.08v5.7h-.29a5.62,5.62,0,0,0-4.29,1.65q-1.56,1.65-1.56,5.13V189H342.5Z"/><path class="cls-3" d="M363,189.36a8.59,8.59,0,0,1-2.57-.38,6.08,6.08,0,0,1-2.1-1.13,5.39,5.39,0,0,1-1.41-1.85,5.78,5.78,0,0,1-.52-2.53v-.07a6.1,6.1,0,0,1,.57-2.73,5.24,5.24,0,0,1,1.6-1.9,7.14,7.14,0,0,1,2.44-1.13,12.22,12.22,0,0,1,3.13-.37,13.83,13.83,0,0,1,2.57.21,16.7,16.7,0,0,1,2.13.58v-.33a3.26,3.26,0,0,0-1-2.62,4.64,4.64,0,0,0-3.08-.89,12.78,12.78,0,0,0-2.78.27,18,18,0,0,0-2.53.77L358,171.1a21,21,0,0,1,3.3-1.12,17.67,17.67,0,0,1,4.16-.43,11.77,11.77,0,0,1,3.85.56,6.71,6.71,0,0,1,2.64,1.6,6.42,6.42,0,0,1,1.58,2.63,11.56,11.56,0,0,1,.5,3.5V189h-5.27v-2.08a7.5,7.5,0,0,1-2.41,1.77A7.93,7.93,0,0,1,363,189.36Zm1.65-3.77a4.83,4.83,0,0,0,3.1-.93,3,3,0,0,0,1.17-2.44v-1a8.11,8.11,0,0,0-1.6-.52,8.67,8.67,0,0,0-1.88-.2,4.91,4.91,0,0,0-2.77.68,2.24,2.24,0,0,0-1,2v.07a2,2,0,0,0,.82,1.72A3.52,3.52,0,0,0,364.6,185.59Z"/><path class="cls-3" d="M387.8,189.43a10.23,10.23,0,0,1-4-.79,9.8,9.8,0,0,1-3.17-2.14,9.66,9.66,0,0,1-2.08-3.15,10,10,0,0,1-.75-3.86v-.07a10.16,10.16,0,0,1,.75-3.88,10,10,0,0,1,2.08-3.19,9.67,9.67,0,0,1,3.17-2.15,10.24,10.24,0,0,1,4.08-.79,10.53,10.53,0,0,1,4.52.86,10.37,10.37,0,0,1,3.15,2.37l-3.33,3.59a9.47,9.47,0,0,0-1.92-1.55,4.87,4.87,0,0,0-2.46-.57,4.29,4.29,0,0,0-1.88.41,4.52,4.52,0,0,0-1.47,1.13,5.05,5.05,0,0,0-1,1.67,5.89,5.89,0,0,0-.34,2v.07a6.17,6.17,0,0,0,.34,2.08,4.81,4.81,0,0,0,1,1.69,4.71,4.71,0,0,0,1.55,1.12,4.63,4.63,0,0,0,2,.42,4.92,4.92,0,0,0,2.38-.56,10.21,10.21,0,0,0,2-1.49l3.19,3.23a12.32,12.32,0,0,1-3.19,2.53A9.63,9.63,0,0,1,387.8,189.43Z"/><path class="cls-3" d="M399.32,162.81h5.74v4.84h-5.74Zm.14,7h5.45V189h-5.45Z"/><path class="cls-3" d="M419.48,189.43a10.77,10.77,0,0,1-4.13-.78,9.79,9.79,0,0,1-5.45-5.27,9.53,9.53,0,0,1-.79-3.89v-.07a9.53,9.53,0,0,1,.79-3.89,9.88,9.88,0,0,1,2.19-3.18,10.35,10.35,0,0,1,3.3-2.15,10.63,10.63,0,0,1,4.16-.79,10.91,10.91,0,0,1,4.12.77A10.23,10.23,0,0,1,427,172.3a10,10,0,0,1,2.17,3.16,9.69,9.69,0,0,1,.78,3.89v.07a9.72,9.72,0,0,1-.78,3.89,9.89,9.89,0,0,1-2.19,3.17,10.6,10.6,0,0,1-3.3,2.16A10.89,10.89,0,0,1,419.48,189.43Zm.07-4.7a5,5,0,0,0,2.1-.42,4.65,4.65,0,0,0,1.56-1.12,4.91,4.91,0,0,0,1-1.67,5.93,5.93,0,0,0,.34-2v-.07a5.93,5.93,0,0,0-.35-2,5.11,5.11,0,0,0-2.66-2.85,4.75,4.75,0,0,0-2-.43,5.14,5.14,0,0,0-2.1.41,4.67,4.67,0,0,0-1.56,1.13,5.1,5.1,0,0,0-1,1.67,5.89,5.89,0,0,0-.34,2v.07a5.71,5.71,0,0,0,.36,2,5.17,5.17,0,0,0,2.64,2.85A4.86,4.86,0,0,0,419.55,184.73Zm1.94-23.43,4.69,2-4.59,4.3h-4.16Z"/><path class="cls-3" d="M433.86,169.77h5.45v2.75a12.49,12.49,0,0,1,1-1.18,7.92,7.92,0,0,1,1.24-1,6.3,6.3,0,0,1,1.51-.69,6.64,6.64,0,0,1,1.86-.25,6.19,6.19,0,0,1,4.83,1.9,7.61,7.61,0,0,1,1.7,5.24V189H446V178.3a4.35,4.35,0,0,0-.86-2.92,3.08,3.08,0,0,0-2.44-1,3.25,3.25,0,0,0-2.49,1,4.16,4.16,0,0,0-.92,2.92V189h-5.45Z"/><path class="cls-3" d="M454.7,192.55q3.78-.41,3.5-3.55H456v-5.74h5.78v4.84q0,3.56-1.71,5.11a7.18,7.18,0,0,1-4.89,1.6Z"/><path class="cls-3" d="M7.64,210.08H0V205H20.8v5.09H13.16v20H7.64Z"/><path class="cls-3" d="M24.46,210.87h5.46v3.88a8,8,0,0,1,2.26-3.16,5.48,5.48,0,0,1,3.87-1.08v5.71h-.29a5.6,5.6,0,0,0-4.28,1.65q-1.56,1.65-1.56,5.12v7.11H24.46Z"/><path class="cls-3" d="M44.91,230.46a8.64,8.64,0,0,1-2.57-.38A5.94,5.94,0,0,1,40.25,229a5.42,5.42,0,0,1-1.42-1.85,5.78,5.78,0,0,1-.52-2.53v-.07a6,6,0,0,1,.57-2.72,5.39,5.39,0,0,1,1.6-1.91,7.12,7.12,0,0,1,2.44-1.12,11.8,11.8,0,0,1,3.14-.38,13.71,13.71,0,0,1,2.56.21,17.32,17.32,0,0,1,2.14.58v-.33a3.26,3.26,0,0,0-1-2.61,4.63,4.63,0,0,0-3.09-.9,12.78,12.78,0,0,0-2.78.27,18.37,18.37,0,0,0-2.53.77L40,212.2a20,20,0,0,1,3.3-1.11,17.21,17.21,0,0,1,4.16-.43,11.85,11.85,0,0,1,3.86.55,6.74,6.74,0,0,1,2.63,1.6,6.31,6.31,0,0,1,1.58,2.63,11.25,11.25,0,0,1,.5,3.5V230.1H50.72V228a7.56,7.56,0,0,1-2.4,1.77A8,8,0,0,1,44.91,230.46Zm1.65-3.77a4.83,4.83,0,0,0,3.1-.93,3,3,0,0,0,1.17-2.44v-1a7.9,7.9,0,0,0-1.6-.52,8.6,8.6,0,0,0-1.88-.2,4.9,4.9,0,0,0-2.76.68,2.26,2.26,0,0,0-1,2v.07a2,2,0,0,0,.83,1.72A3.49,3.49,0,0,0,46.56,226.69Z"/><path class="cls-3" d="M60.69,210.87h5.45v2.75a11.35,11.35,0,0,1,1-1.17,7,7,0,0,1,1.23-1,5.91,5.91,0,0,1,1.51-.68,6.31,6.31,0,0,1,1.87-.26,6.16,6.16,0,0,1,4.82,1.9,7.56,7.56,0,0,1,1.7,5.24V230.1H72.85V219.4a4.35,4.35,0,0,0-.86-2.92,3.08,3.08,0,0,0-2.44-1,3.25,3.25,0,0,0-2.49,1,4.16,4.16,0,0,0-.92,2.92v10.7H60.69Z"/><path class="cls-3" d="M89.78,230.46a13.44,13.44,0,0,1-8.25-2.91L83.86,224A13.29,13.29,0,0,0,87,225.69a8.57,8.57,0,0,0,2.93.57,3.05,3.05,0,0,0,1.73-.39,1.21,1.21,0,0,0,.56-1.05v-.07a1,1,0,0,0-.32-.75,2.78,2.78,0,0,0-.88-.56c-.37-.15-.8-.3-1.27-.45l-1.51-.46a21.25,21.25,0,0,1-2-.7,6.91,6.91,0,0,1-1.84-1.08A5.1,5.1,0,0,1,83,219.12a4.89,4.89,0,0,1-.52-2.37v-.07a5.82,5.82,0,0,1,.56-2.6,5.88,5.88,0,0,1,1.5-1.92A6.53,6.53,0,0,1,86.79,211a9.3,9.3,0,0,1,2.74-.4,12.14,12.14,0,0,1,3.71.6,13.25,13.25,0,0,1,3.46,1.63l-2.08,3.76a17.81,17.81,0,0,0-2.79-1.31,7.38,7.38,0,0,0-2.41-.48,2.47,2.47,0,0,0-1.5.38,1.14,1.14,0,0,0-.51,1v.07a.93.93,0,0,0,.33.7,3.56,3.56,0,0,0,.86.57,9.87,9.87,0,0,0,1.24.52c.46.17,1,.34,1.48.51a20.71,20.71,0,0,1,2.05.77,8.5,8.5,0,0,1,1.86,1.09,5.49,5.49,0,0,1,1.37,1.58,4.42,4.42,0,0,1,.54,2.26v.07a6.41,6.41,0,0,1-.56,2.78A5.06,5.06,0,0,1,95,229a7,7,0,0,1-2.35,1.13A10.74,10.74,0,0,1,89.78,230.46Z"/><path class="cls-3" d="M102,215.53H99.72v-4.48H102v-1.22a6.33,6.33,0,0,1,1.54-4.66,6,6,0,0,1,4.41-1.51,15.39,15.39,0,0,1,2.21.14,10.76,10.76,0,0,1,1.67.4v4.52a8.65,8.65,0,0,0-1.19-.34,5.63,5.63,0,0,0-1.29-.13c-1.31,0-2,.7-2,2.08v.76h4.41v4.44h-4.34V230.1H102Z"/><path class="cls-3" d="M124.18,230.53a10.91,10.91,0,0,1-4.12-.77,10.12,10.12,0,0,1-3.29-2.12,10,10,0,0,1-2.17-3.16,9.69,9.69,0,0,1-.79-3.89v-.07a9.73,9.73,0,0,1,.79-3.89,10,10,0,0,1,2.19-3.18,10.52,10.52,0,0,1,3.3-2.15,11.4,11.4,0,0,1,8.29,0,10.19,10.19,0,0,1,3.28,2.12,10,10,0,0,1,2.17,3.16,9.53,9.53,0,0,1,.79,3.89v.07a9.56,9.56,0,0,1-.79,3.89,10,10,0,0,1-2.19,3.18,10.35,10.35,0,0,1-3.3,2.15A10.85,10.85,0,0,1,124.18,230.53Zm.07-4.7a5.14,5.14,0,0,0,2.1-.41,4.67,4.67,0,0,0,1.56-1.13,5.1,5.1,0,0,0,1-1.67,6.13,6.13,0,0,0,.34-2v-.07a5.71,5.71,0,0,0-.36-2,5.14,5.14,0,0,0-2.65-2.85,5,5,0,0,0-2-.43,5.14,5.14,0,0,0-2.1.41,4.81,4.81,0,0,0-1.56,1.13,4.91,4.91,0,0,0-1,1.67,5.93,5.93,0,0,0-.35,2v.07a5.71,5.71,0,0,0,.36,2,5.21,5.21,0,0,0,1,1.68,5.29,5.29,0,0,0,1.6,1.17A4.75,4.75,0,0,0,124.25,225.83Z"/><path class="cls-3" d="M138.56,210.87H144v3.88a8,8,0,0,1,2.26-3.16,5.48,5.48,0,0,1,3.87-1.08v5.71h-.29a5.61,5.61,0,0,0-4.28,1.65Q144,219.52,144,223v7.11h-5.46Z"/><path class="cls-3" d="M153.56,210.87H159v2.75a11.24,11.24,0,0,1,1-1.17,7.06,7.06,0,0,1,1.24-1,5.68,5.68,0,0,1,1.52-.68,6.54,6.54,0,0,1,1.89-.26,6.45,6.45,0,0,1,3.28.8,5.37,5.37,0,0,1,2.13,2.27,8.81,8.81,0,0,1,2.8-2.29,7.69,7.69,0,0,1,3.52-.78,6.29,6.29,0,0,1,4.77,1.8,7.3,7.3,0,0,1,1.72,5.27V230.1h-5.45V219.4a4.46,4.46,0,0,0-.83-2.92,2.93,2.93,0,0,0-2.37-1,3.11,3.11,0,0,0-2.42,1,4.3,4.3,0,0,0-.88,2.92v10.7H165.5V219.4a4.46,4.46,0,0,0-.82-2.92,2.93,2.93,0,0,0-2.37-1,3.08,3.08,0,0,0-2.42,1,4.25,4.25,0,0,0-.88,2.92v10.7h-5.45Z"/><path class="cls-3" d="M193.09,230.46a8.59,8.59,0,0,1-2.57-.38,6.08,6.08,0,0,1-2.1-1.13A5.39,5.39,0,0,1,187,227.1a5.78,5.78,0,0,1-.52-2.53v-.07a6,6,0,0,1,.57-2.72,5.29,5.29,0,0,1,1.6-1.91,7.12,7.12,0,0,1,2.44-1.12,11.78,11.78,0,0,1,3.13-.38,13.83,13.83,0,0,1,2.57.21,16.7,16.7,0,0,1,2.13.58v-.33a3.23,3.23,0,0,0-1-2.61,4.58,4.58,0,0,0-3.08-.9,12.78,12.78,0,0,0-2.78.27,18,18,0,0,0-2.53.77l-1.36-4.16a20,20,0,0,1,3.3-1.11,17.15,17.15,0,0,1,4.16-.43,11.78,11.78,0,0,1,3.85.55,6.71,6.71,0,0,1,2.64,1.6,6.42,6.42,0,0,1,1.58,2.63,11.56,11.56,0,0,1,.5,3.5V230.1H198.9V228a7.5,7.5,0,0,1-2.41,1.77A7.89,7.89,0,0,1,193.09,230.46Zm1.65-3.77a4.83,4.83,0,0,0,3.1-.93,3,3,0,0,0,1.17-2.44v-1a8.11,8.11,0,0,0-1.6-.52,8.67,8.67,0,0,0-1.88-.2,4.91,4.91,0,0,0-2.77.68,2.25,2.25,0,0,0-1,2v.07a2,2,0,0,0,.82,1.72A3.52,3.52,0,0,0,194.74,226.69Z"/><path class="cls-3" d="M217.94,230.53a10.15,10.15,0,0,1-4-.79,9.84,9.84,0,0,1-3.18-2.14,9.72,9.72,0,0,1-2.08-3.15,10,10,0,0,1-.75-3.86v-.07a10.14,10.14,0,0,1,2.83-7.07A9.87,9.87,0,0,1,214,211.3a10.33,10.33,0,0,1,4.07-.79,10.53,10.53,0,0,1,4.52.86,10.37,10.37,0,0,1,3.15,2.37l-3.33,3.59a8.83,8.83,0,0,0-1.92-1.54,4.77,4.77,0,0,0-2.46-.58,4.29,4.29,0,0,0-1.88.41,4.78,4.78,0,0,0-1.47,1.13,5.23,5.23,0,0,0-1,1.67,5.93,5.93,0,0,0-.34,2v.07a6.13,6.13,0,0,0,.34,2.08,5,5,0,0,0,1,1.69,4.84,4.84,0,0,0,1.55,1.13,4.78,4.78,0,0,0,2,.41,4.92,4.92,0,0,0,2.38-.56,9.83,9.83,0,0,0,2-1.49L225.8,227a12.32,12.32,0,0,1-3.19,2.53A9.63,9.63,0,0,1,217.94,230.53Z"/><path class="cls-3" d="M229.46,203.91h5.74v4.84h-5.74Zm.14,7h5.45V230.1H229.6Z"/><path class="cls-3" d="M249.62,230.53a11,11,0,0,1-4.13-.77,10.08,10.08,0,0,1-3.28-2.12,10,10,0,0,1-2.17-3.16,9.53,9.53,0,0,1-.79-3.89v-.07a9.56,9.56,0,0,1,.79-3.89,10,10,0,0,1,2.19-3.18,10.52,10.52,0,0,1,3.3-2.15,11.38,11.38,0,0,1,8.28,0,10.12,10.12,0,0,1,3.29,2.12,10,10,0,0,1,2.17,3.16,9.69,9.69,0,0,1,.79,3.89v.07a9.73,9.73,0,0,1-.79,3.89,10,10,0,0,1-2.19,3.18,10.35,10.35,0,0,1-3.3,2.15A10.89,10.89,0,0,1,249.62,230.53Zm.07-4.7a5.14,5.14,0,0,0,2.1-.41,4.67,4.67,0,0,0,1.56-1.13,4.91,4.91,0,0,0,1-1.67,5.89,5.89,0,0,0,.35-2v-.07a5.71,5.71,0,0,0-.36-2,5.11,5.11,0,0,0-2.66-2.85,4.9,4.9,0,0,0-2-.43,5.14,5.14,0,0,0-2.1.41,4.81,4.81,0,0,0-1.56,1.13,5.1,5.1,0,0,0-1,1.67,5.93,5.93,0,0,0-.34,2v.07a5.71,5.71,0,0,0,.36,2,5.17,5.17,0,0,0,2.64,2.85A4.72,4.72,0,0,0,249.69,225.83Zm1.94-23.42,4.7,2-4.6,4.3h-4.16Z"/><path class="cls-3" d="M264,210.87h5.45v2.75a10.27,10.27,0,0,1,1-1.17,7,7,0,0,1,1.23-1,5.91,5.91,0,0,1,1.51-.68,6.28,6.28,0,0,1,1.86-.26,6.17,6.17,0,0,1,4.83,1.9,7.61,7.61,0,0,1,1.7,5.24V230.1h-5.45V219.4a4.35,4.35,0,0,0-.86-2.92,3.08,3.08,0,0,0-2.44-1,3.25,3.25,0,0,0-2.49,1,4.16,4.16,0,0,0-.92,2.92v10.7H264Z"/><path class="cls-3" d="M301.7,235.94a9.2,9.2,0,0,1-2.65-.35,10.74,10.74,0,0,1-2.19-1l1.83-4a5.59,5.59,0,0,0,1.16.54,3.75,3.75,0,0,0,1.17.22,2.14,2.14,0,0,0,1.13-.27,2.52,2.52,0,0,0,.77-1l-7.53-19.3h5.77L305.54,224l4.19-13.09h5.67L308,230.56a15.6,15.6,0,0,1-1.14,2.5,7,7,0,0,1-1.35,1.66,4.4,4.4,0,0,1-1.67.94A7.38,7.38,0,0,1,301.7,235.94Z"/><path class="cls-3" d="M330,205h11.48q4.77,0,7.32,2.54a7.75,7.75,0,0,1,2.15,5.74v.08a7.79,7.79,0,0,1-1.49,5,8.64,8.64,0,0,1-3.89,2.82l6.14,9h-6.46l-5.38-8h-4.34v8H330Zm11.12,12.19a4.61,4.61,0,0,0,3.14-1,3.3,3.3,0,0,0,1.1-2.59v-.07a3.23,3.23,0,0,0-1.15-2.69A5.06,5.06,0,0,0,341,210h-5.49v7.21Z"/><path class="cls-3" d="M364.43,230.53a11,11,0,0,1-4-.72,9.38,9.38,0,0,1-3.19-2,9.72,9.72,0,0,1-2.1-3.14,10.5,10.5,0,0,1-.75-4v-.07a10.67,10.67,0,0,1,.7-3.87,9.92,9.92,0,0,1,2-3.2,9.11,9.11,0,0,1,6.85-2.94,9.42,9.42,0,0,1,4.16.86,8.56,8.56,0,0,1,2.92,2.32A9.59,9.59,0,0,1,372.7,217a13.88,13.88,0,0,1,.56,3.93c0,.22,0,.44,0,.68s0,.49-.05.76H359.81a4.54,4.54,0,0,0,1.63,2.81,4.85,4.85,0,0,0,3.07,1,6.1,6.1,0,0,0,2.44-.46,8.83,8.83,0,0,0,2.22-1.51l3.12,2.76a9.72,9.72,0,0,1-3.3,2.64A10.28,10.28,0,0,1,364.43,230.53ZM368,219a5.34,5.34,0,0,0-1.29-3,3.57,3.57,0,0,0-2.76-1.13,3.65,3.65,0,0,0-2.78,1.11,5.49,5.49,0,0,0-1.38,3Z"/><path class="cls-3" d="M384.06,230.46a13.44,13.44,0,0,1-8.25-2.91l2.33-3.59a13.1,13.1,0,0,0,3.14,1.73,8.52,8.52,0,0,0,2.92.57,3.07,3.07,0,0,0,1.74-.39,1.23,1.23,0,0,0,.55-1.05v-.07a1,1,0,0,0-.32-.75,2.67,2.67,0,0,0-.88-.56c-.37-.15-.79-.3-1.27-.45l-1.51-.46a21.08,21.08,0,0,1-2-.7,7,7,0,0,1-1.85-1.08,5.24,5.24,0,0,1-1.35-1.63,5,5,0,0,1-.52-2.37v-.07a5.66,5.66,0,0,1,2.07-4.52,6.39,6.39,0,0,1,2.22-1.18,9.3,9.3,0,0,1,2.74-.4,12.25,12.25,0,0,1,3.72.6,13.4,13.4,0,0,1,3.46,1.63l-2.08,3.76a17.9,17.9,0,0,0-2.8-1.31,7.38,7.38,0,0,0-2.4-.48,2.5,2.5,0,0,0-1.51.38,1.13,1.13,0,0,0-.5,1v.07a1,1,0,0,0,.32.7,3.77,3.77,0,0,0,.86.57,9.87,9.87,0,0,0,1.24.52c.47.17,1,.34,1.49.51a20.55,20.55,0,0,1,2,.77,8.34,8.34,0,0,1,1.87,1.09,5.46,5.46,0,0,1,1.36,1.58,4.42,4.42,0,0,1,.54,2.26v.07a6.41,6.41,0,0,1-.56,2.78,5.06,5.06,0,0,1-1.56,1.92,7,7,0,0,1-2.35,1.13A10.66,10.66,0,0,1,384.06,230.46Z"/><path class="cls-3" d="M395.43,203.91h5.74v4.84h-5.74Zm.14,7H401V230.1h-5.45Z"/><path class="cls-3" d="M406.4,203.91h5.45V230.1H406.4Z"/><path class="cls-3" d="M417.09,203.91h5.74v4.84h-5.74Zm.14,7h5.46V230.1h-5.46Z"/><path class="cls-3" d="M436.93,230.53a10.89,10.89,0,0,1-4-.72,9.42,9.42,0,0,1-3.2-2,9.54,9.54,0,0,1-2.09-3.14,10.31,10.31,0,0,1-.76-4v-.07a10.88,10.88,0,0,1,.7-3.87,9.92,9.92,0,0,1,2-3.2,9.11,9.11,0,0,1,6.85-2.94,9.42,9.42,0,0,1,4.16.86,8.47,8.47,0,0,1,2.92,2.32,9.59,9.59,0,0,1,1.72,3.33,13.88,13.88,0,0,1,.56,3.93c0,.22,0,.44,0,.68s0,.49-.05.76H432.3a4.58,4.58,0,0,0,1.63,2.81,4.87,4.87,0,0,0,3.07,1,6.1,6.1,0,0,0,2.44-.46,8.66,8.66,0,0,0,2.22-1.51l3.12,2.76a9.72,9.72,0,0,1-3.3,2.64A10.27,10.27,0,0,1,436.93,230.53ZM440.44,219a5.34,5.34,0,0,0-1.29-3,3.54,3.54,0,0,0-2.76-1.13,3.65,3.65,0,0,0-2.78,1.11,5.49,5.49,0,0,0-1.38,3Z"/><path class="cls-3" d="M449.8,210.87h5.46v2.75a11.24,11.24,0,0,1,1-1.17,6.71,6.71,0,0,1,1.24-1,5.69,5.69,0,0,1,1.5-.68,6.31,6.31,0,0,1,1.87-.26,6.15,6.15,0,0,1,4.82,1.9,7.57,7.57,0,0,1,1.71,5.24V230.1H462V219.4a4.3,4.3,0,0,0-.86-2.92,3.08,3.08,0,0,0-2.44-1,3.25,3.25,0,0,0-2.49,1,4.15,4.15,0,0,0-.91,2.92v10.7H449.8Z"/><path class="cls-3" d="M481.23,230.53a10.16,10.16,0,0,1-4-.79,9.84,9.84,0,0,1-3.18-2.14,9.72,9.72,0,0,1-2.08-3.15,10,10,0,0,1-.75-3.86v-.07a10.14,10.14,0,0,1,2.83-7.07,9.87,9.87,0,0,1,3.18-2.15,10.33,10.33,0,0,1,4.07-.79,10.53,10.53,0,0,1,4.52.86,10.37,10.37,0,0,1,3.15,2.37l-3.33,3.59a8.83,8.83,0,0,0-1.92-1.54,4.77,4.77,0,0,0-2.46-.58,4.29,4.29,0,0,0-1.88.41,4.78,4.78,0,0,0-1.47,1.13,5.23,5.23,0,0,0-1,1.67,5.93,5.93,0,0,0-.34,2v.07a6.13,6.13,0,0,0,.34,2.08,5,5,0,0,0,1,1.69,4.84,4.84,0,0,0,1.55,1.13,4.78,4.78,0,0,0,2,.41,4.92,4.92,0,0,0,2.38-.56,9.83,9.83,0,0,0,2-1.49l3.19,3.23a12.32,12.32,0,0,1-3.19,2.53A9.62,9.62,0,0,1,481.23,230.53Z"/><path class="cls-3" d="M492.74,203.91h5.74v4.84h-5.74Zm.14,7h5.45V230.1h-5.45Z"/><path class="cls-3" d="M508.92,230.46a8.59,8.59,0,0,1-2.57-.38,6.08,6.08,0,0,1-2.1-1.13,5.27,5.27,0,0,1-1.41-1.85,5.78,5.78,0,0,1-.52-2.53v-.07a6,6,0,0,1,.57-2.72,5.19,5.19,0,0,1,1.6-1.91,7.12,7.12,0,0,1,2.44-1.12,11.78,11.78,0,0,1,3.13-.38,13.83,13.83,0,0,1,2.57.21,16.7,16.7,0,0,1,2.13.58v-.33a3.23,3.23,0,0,0-1-2.61,4.58,4.58,0,0,0-3.08-.9,12.78,12.78,0,0,0-2.78.27,18,18,0,0,0-2.53.77L504,212.2a20,20,0,0,1,3.3-1.11,17.15,17.15,0,0,1,4.16-.43,11.78,11.78,0,0,1,3.85.55,6.71,6.71,0,0,1,2.64,1.6,6.42,6.42,0,0,1,1.58,2.63,11.56,11.56,0,0,1,.5,3.5V230.1h-5.27V228a7.5,7.5,0,0,1-2.41,1.77A7.93,7.93,0,0,1,508.92,230.46Zm1.65-3.77a4.83,4.83,0,0,0,3.1-.93,3,3,0,0,0,1.16-2.44v-1a7.8,7.8,0,0,0-1.59-.52,8.76,8.76,0,0,0-1.89-.2,4.9,4.9,0,0,0-2.76.68,2.25,2.25,0,0,0-1,2v.07a2,2,0,0,0,.82,1.72A3.52,3.52,0,0,0,510.57,226.69Z"/></svg>